# xmcd
#
# Track frame offsets: 
#        150
#        29768
#        62656
#        88614
#        111337
#        134791
#        163539
#        204471
#
# Disc length: 3185 seconds
#
# Revision: 1
# Processed by: cddbd v1.5.2PL0 Copyright (c) Steve Scherf et al.
# Submitted via: ExactAudioCopy v0.99pb4
#
DISCID=740c6f08
DTITLE=Dave Brubeck - Take The A Train
DYEAR=1900
DGENRE=
TTITLE0=Take The A Train
TTITLE1=The Dove
TTITLE2=Three To Get Ready
TTITLE3=Forty Days
TTITLE4=Summer Song (Softly William)
TTITLE5=Someday My Prince
TTITLE6=One Moment
TTITLE7=Joe's Blues
EXTD=
EXTT0=
EXTT1=
EXTT2=
EXTT3=
EXTT4=
EXTT5=
EXTT6=
EXTT7=
PLAYORDER=
